<svg xmlns="http://www.w3.org/2000/svg" width="188" height="38.995" viewBox="0 0 188 38.995">
  <g id="Group_14" data-name="Group 14" transform="translate(-429 -4040)">
    <g id="Unternehmenslogo_HolidayCheck_AG_weiß" transform="translate(429 4040)">
      <path id="Path_7" data-name="Path 7" d="M461.9,125a3.8,3.8,0,1,1-3.8-3.8,3.8,3.8,0,0,1,3.8,3.8" transform="translate(-273.947 -89.807)" fill="#262626"/>
      <path id="Path_8" data-name="Path 8" d="M428,125a3.8,3.8,0,1,1-3.8-3.8A3.8,3.8,0,0,1,428,125" transform="translate(-255.207 -89.807)" fill="#262626"/>
      <path id="Path_9" data-name="Path 9" d="M394,125a3.8,3.8,0,1,1-3.8-3.8A3.8,3.8,0,0,1,394,125" transform="translate(-236.411 -89.807)" fill="#262626"/>
      <path id="Path_10" data-name="Path 10" d="M360,125a3.8,3.8,0,1,1-3.8-3.8A3.8,3.8,0,0,1,360,125" transform="translate(-217.616 -89.807)" fill="#262626"/>
      <path id="Path_11" data-name="Path 11" d="M326,125a3.8,3.8,0,1,1-3.8-3.8A3.8,3.8,0,0,1,326,125" transform="translate(-198.821 -89.807)" fill="#262626"/>
      <path id="Path_12" data-name="Path 12" d="M291.9,125a3.8,3.8,0,1,1-3.8-3.8,3.8,3.8,0,0,1,3.8,3.8" transform="translate(-179.97 -89.807)" fill="#262626"/>
      <path id="Path_13" data-name="Path 13" d="M100.475,75.751c0-3.086,1.878-6.037,5.1-6.037,3.175,0,5.053,3,5.053,6.037,0,2.907-1.565,6.037-5.053,6.037-3.533,0-5.1-3.175-5.1-6.037m-3.175,0a8.275,8.275,0,1,0,16.546,0c0-4.919-3.309-8.452-8.273-8.452-4.964-.045-8.273,3.533-8.273,8.452m0,0a8.275,8.275,0,1,0,16.546,0c0-4.919-3.309-8.452-8.273-8.452-4.964-.045-8.273,3.533-8.273,8.452m3.175,0c0-3.086,1.878-6.037,5.1-6.037,3.175,0,5.053,3,5.053,6.037,0,2.907-1.565,6.037-5.053,6.037-3.533,0-5.1-3.175-5.1-6.037" transform="translate(-76.595 -60.01)" fill="#262626"/>
      <path id="Path_14" data-name="Path 14" d="M251.111,83.17l-5.366-14.623c0-.045-.045-.089-.045-.134a.319.319,0,0,1,.358-.313h2.325a.673.673,0,0,1,.626.447l4.248,12.924h.045L257.6,68.592v-.045a.637.637,0,0,1,.581-.4h2.1a.346.346,0,0,1,.358.313v.089L255.091,83.8l-3.578,10.33c0,.045-.045.089-.045.134a.35.35,0,0,1-.492.045l-1.789-1.431a.6.6,0,0,1-.224-.76l2.728-7.066a11.681,11.681,0,0,0-.581-1.878" transform="translate(-158.631 -60.453)" fill="#262626"/>
      <path id="Path_15" data-name="Path 15" d="M221.733,77.485V76.054c-.626,0-1.3-.045-1.923-.045-1.61,0-5.635.268-5.635,3.086a2.875,2.875,0,0,0,3.041,2.638c2.951,0,4.517-1.833,4.517-4.248m3.086,5.635a.688.688,0,0,1-.671.671h-1.386a.67.67,0,0,1-.715-.671V81.689H222a6.045,6.045,0,0,1-5.053,2.46c-3.488,0-5.948-1.52-5.948-5.053,0-4.069,4.472-5.322,7.558-5.322,1.163,0,2.012,0,3.175.045,0-2.773-1.029-4.2-4.025-4.2a7.576,7.576,0,0,0-3.8,1.029.842.842,0,0,1-.358.089.68.68,0,0,1-.671-.626l-.089-1.163a.3.3,0,0,1,.179-.313,10.2,10.2,0,0,1,5.187-1.431c4.651,0,6.529,2.281,6.529,6.708v6.708c.045,1.163.089,1.923.134,2.5Z" transform="translate(-139.449 -59.955)" fill="#262626"/>
      <path id="Path_16" data-name="Path 16" d="M172.575,66.652c-.045,2.549,1.3,6.127,4.517,6.127,3.4,0,4.785-3.309,4.785-6.037,0-3-1.565-6.082-4.83-6.082s-4.561,3.041-4.472,5.992m9.391,7.468V72.51h-.045a6.538,6.538,0,0,1-5.545,2.683c-4.919,0-6.976-4.338-6.976-8.765,0-4.338,2.281-8.184,7.021-8.184,2.817,0,4.472,1.118,5.411,2.594h.045V51.671A.65.65,0,0,1,182.5,51h1.7a.659.659,0,0,1,.671.671V74.12a.68.68,0,0,1-.626.671h-1.61a.688.688,0,0,1-.671-.671" transform="translate(-116.452 -51)" fill="#262626"/>
      <path id="Path_17" data-name="Path 17" d="M68.038,76.21a.688.688,0,0,1-.671.671H65.489a.65.65,0,0,1-.626-.671V66.774H54.175V76.21a.68.68,0,0,1-.626.671H51.716A.7.7,0,0,1,51,76.21V55.416a.659.659,0,0,1,.671-.671h1.878a.681.681,0,0,1,.671.626v8.586H64.863V55.326a.65.65,0,0,1,.671-.626h1.833a.7.7,0,0,1,.716.671V76.21Z" transform="translate(-51 -53.045)" fill="#262626"/>
      <path id="Path_18" data-name="Path 18" d="M142.016,74.791h-.045a.688.688,0,0,1-.671-.671V51.671a.688.688,0,0,1,.671-.671h1.7a.688.688,0,0,1,.671.671v23.12Z" transform="translate(-100.918 -51)" fill="#262626"/>
      <path id="Path_19" data-name="Path 19" d="M157.415,84.188h-.045a.688.688,0,0,1-.671-.671V68.671a.688.688,0,0,1,.671-.671h1.7a.688.688,0,0,1,.671.671V84.188Z" transform="translate(-109.432 -60.398)" fill="#262626"/>
      <path id="Path_20" data-name="Path 20" d="M159.6,52.345v2.728a.65.65,0,0,1-.671.626H156.2V52.971a.688.688,0,0,1,.671-.671H159.6Z" transform="translate(-109.155 -51.719)" fill="#262626"/>
      <path id="Path_21" data-name="Path 21" d="M100.475,75.752c0,2.907,1.565,6.037,5.1,6.037s5.053-3.175,5.053-6.037c0-3.086-1.878-6.037-5.053-6.037-3.22-.045-5.1,2.951-5.1,6.037m-3.175,0c0-4.919,3.309-8.452,8.273-8.452s8.273,3.533,8.273,8.452a8.275,8.275,0,1,1-16.546,0" transform="translate(-76.595 -60.011)" fill="#262626"/>
      <path id="Path_22" data-name="Path 22" d="M301.17,75.544a.653.653,0,0,1-.4.626,15.357,15.357,0,0,1-4.651.626c-7.066,0-11.716-4.517-11.716-11.538,0-6.8,4.964-11.359,11.761-11.359a12.783,12.783,0,0,1,4.517.76h.045a.637.637,0,0,1,.4.581l-.179,2.147a.336.336,0,0,1-.313.313.164.164,0,0,1-.134-.045,9.033,9.033,0,0,0-4.159-.984c-5.143,0-8.541,3.667-8.541,8.631a8.3,8.3,0,0,0,8.407,8.676,12.184,12.184,0,0,0,4.427-.85c.045,0,.089-.045.134-.045a.319.319,0,0,1,.313.358Z" transform="translate(-180.025 -52.603)" fill="#262626"/>
      <path id="Path_23" data-name="Path 23" d="M344.444,74.12a.688.688,0,0,1-.671.671h-1.7a.688.688,0,0,1-.671-.671V66.428c0-3.756-.85-5.59-3.443-5.769-3.4,0-4.964,2.728-4.964,6.663v6.842a.68.68,0,0,1-.626.671h-1.7a.688.688,0,0,1-.671-.671V51.716a.7.7,0,0,1,.671-.716h1.7a.688.688,0,0,1,.671.671v9.257h.045a5.966,5.966,0,0,1,5.232-2.683c4.2,0,6.082,2.594,6.082,6.931V74.12Z" transform="translate(-205.233 -51)" fill="#262626"/>
      <path id="Path_24" data-name="Path 24" d="M418.985,83.086a.684.684,0,0,1-.492.671,9.46,9.46,0,0,1-3.22.447A8.183,8.183,0,0,1,407,75.752c0-4.919,3.309-8.452,8.273-8.452a11.691,11.691,0,0,1,3.086.447.622.622,0,0,1,.492.626v.045l-.134,1.52a.319.319,0,0,1-.358.313h-.089a8.9,8.9,0,0,0-2.862-.537c-3.354,0-5.232,3-5.232,6.037,0,2.907,1.565,6.037,5.411,6.037a6.317,6.317,0,0,0,2.773-.671c.045-.045.089-.045.179-.045a.306.306,0,0,1,.313.313Z" transform="translate(-247.799 -60.011)" fill="#262626"/>
      <path id="Path_25" data-name="Path 25" d="M450.4,74.791a.741.741,0,0,1-.537-.224L442.8,66.473V74.12a.688.688,0,0,1-.671.671h-1.655a.688.688,0,0,1-.671-.671V51.671a.688.688,0,0,1,.671-.671h1.655a.659.659,0,0,1,.671.671V65.176l6.305-6.305a.718.718,0,0,1,.492-.224h3A.319.319,0,0,1,452.9,59a.342.342,0,0,1-.089.224l-6.976,6.618,7.96,8.407a.27.27,0,0,1,.134.268.306.306,0,0,1-.313.313Z" transform="translate(-265.931 -51)" fill="#262626"/>
      <path id="Path_26" data-name="Path 26" d="M372.675,74.131h8.407c0-2.46-1.476-4.517-4.069-4.517-2.907,0-4.114,2.415-4.338,4.517m10.375,8.5a.653.653,0,0,1-.4.626,11.9,11.9,0,0,1-4.74.894c-5.769,0-8.407-3.488-8.407-8.765,0-4.785,3.041-8.184,7.647-8.184,5.277,0,7.11,3.756,7.155,8.81a.346.346,0,0,1-.313.358H372.72a5.307,5.307,0,0,0,5.366,5.411,10.15,10.15,0,0,0,4.517-1.3c.045-.045.089-.045.179-.045a.346.346,0,0,1,.358.313v1.878Z" transform="translate(-227.069 -59.955)" fill="#262626"/>
    </g>
  </g>
</svg>
