<svg xmlns="http://www.w3.org/2000/svg" xmlns:xlink="http://www.w3.org/1999/xlink" width="132" height="69" viewBox="0 0 132 69">
  <defs>
    <polygon id="logo-roche-a" points="0 0 132 0 132 69 0 69"/>
  </defs>
  <g fill="none" fill-rule="evenodd">
    <mask id="logo-roche-b" fill="#fff">
      <use xlink:href="#logo-roche-a"/>
    </mask>
    <path fill="#262626" d="M71.115836,39.179832 C71.0994196,39.4937091 71.0808752,39.7748206 71.0644588,39.9717211 C70.9437678,41.5478438 70.3910825,43.2250196 68.4791801,43.2250196 C66.6980009,43.2250196 65.9920958,41.4072881 65.8622847,40.0712431 C65.7844588,39.2615932 65.8026992,38.6332264 65.7865868,36.2391857 C65.7677384,33.4553249 65.8568125,32.739685 65.8951175,32.2846397 C66.0456011,30.5260089 66.7256656,29.1608729 68.4791801,29.1464804 C70.2837678,29.1345378 71.0434823,30.7161725 71.0644588,32.2705535 C71.0644588,32.2846397 71.0994196,32.660986 71.1304284,33.4862533 L75.362819,33.4862533 C75.3506587,33.2029983 75.3384984,32.9650641 75.3275541,32.8248146 C74.8453984,26.9355603 71.2839521,25.5094862 68.4727959,25.5094862 C64.4906034,25.5094862 62.0637126,28.0603123 61.6253339,32.8802407 C61.5925012,33.2651613 61.5310917,33.9728395 61.5088991,36.2391857 C61.4949148,37.8943136 61.5991893,39.2514878 61.6201658,39.5935374 C61.8946845,44.0922393 64.4556426,46.8522148 68.4727959,46.8645241 C72.6337448,46.8788561 74.9277844,44.3234366 75.3275541,39.5913938 C75.3415385,39.41746 75.364947,39.3010957 75.3506587,39.179832 L71.115836,39.179832 L71.115836,39.179832 Z M42.4841179,46.4054374 L38.2575035,46.4054374 C38.2575035,46.4054374 38.0805712,45.6043617 38.0477384,44.6697733 L37.6060157,38.0679413 C37.374362,34.7053216 35.8403409,33.5073826 34.4808199,33.5073826 L32.1296269,33.5073826 L32.1271948,46.4029877 L27.9024044,46.4029877 L27.9024044,18.2100813 L34.443427,18.2100813 C38.4484201,18.2550959 41.8493505,20.1898042 41.8715431,25.7063867 C41.8824873,29.3302134 40.3867711,31.0658776 39.229111,31.7671251 C40.8303178,32.7109002 41.6374574,34.5457801 41.828678,37.6677096 C41.828678,37.6677096 42.2700967,44.648644 42.2700967,44.6465004 C42.3029295,45.6306967 42.4841179,46.4054374 42.4841179,46.4054374 L42.4841179,46.4054374 Z M32.1296269,21.844932 L32.1296269,29.8700821 L34.362257,29.8700821 C36.9405435,29.8700821 37.4853247,27.6900904 37.6060157,26.4431559 C37.6227361,26.2937198 37.6291202,26.1611258 37.6291202,25.7804924 C37.6291202,25.4519165 37.6105758,25.2761453 37.6060157,25.1211972 C37.5512943,23.0217417 36.3574574,21.844932 34.15462,21.844932 L32.1296269,21.844932 L32.1296269,21.844932 Z M132,34.725226 L102.511589,69 L29.5926854,69 L0,34.6100867 L29.5893413,0 L102.514021,0 L132,34.725226 Z M31.2708061,3.48112743 L4.56740673,34.719714 L31.268374,65.7399646 L100.838333,65.7399646 L127.430465,34.8244418 L100.831644,3.48112743 L31.2708061,3.48112743 L31.2708061,3.48112743 Z M108.270705,39.3755076 C108.001658,44.0922393 105.405435,46.8644636 101.524477,46.8644636 C97.640175,46.8644636 95.0430401,44.0181336 94.7818977,39.5935374 C94.7630493,39.2750669 94.6730631,37.8943136 94.6730631,36.2391857 C94.6730631,33.9186382 94.7463289,33.3147692 94.7861538,32.8823843 C95.2607094,28.0339773 97.6711838,25.5094862 101.524477,25.5094862 C103.53427,25.5094862 105.228807,26.2937198 106.430244,27.7850191 C107.463565,29.0702313 108.141198,31.063734 108.270705,32.8842216 C108.350659,34.0702179 108.368291,34.6342782 108.381667,34.9717344 C108.407812,35.8322172 108.391396,37.2613535 108.391396,37.2613535 L98.8483003,37.2613535 C98.8437402,39.0092665 98.9261262,39.5203504 98.9525749,39.9815202 C99.0723538,41.5977579 99.7496822,43.2250196 101.524477,43.2250196 C103.609056,43.2250196 104.006393,41.0823869 104.124044,40.0792049 C104.169037,39.6918345 104.161133,39.3755076 104.161133,39.3755076 L108.270705,39.3755076 Z M98.876877,33.6831538 L104.220719,33.6831538 C104.224975,33.2651613 104.183022,32.8701354 104.142589,32.2806588 C104.069931,31.1577441 103.590207,29.1302507 101.534509,29.1464804 C99.8013634,29.1608729 99.0492492,30.5682675 98.9261262,32.2705535 C98.9075818,32.544928 98.9075818,32.7418285 98.876877,33.6831538 L98.876877,33.6831538 Z M58.7360479,36.2391857 C58.7360479,37.8943136 58.6439337,39.2726171 58.6253892,39.5913938 C58.3463105,44.0426314 55.7874804,46.8644636 51.7727591,46.8644636 C47.7553017,46.8644636 45.1946476,44.0922393 44.9176969,39.5935374 C44.8970244,39.2514878 44.7927499,37.8943136 44.8067342,36.2391857 C44.8289268,33.9728395 44.8924643,33.2651613 44.9256011,32.8802407 C45.3615477,28.0603123 47.7905666,25.5094862 51.7727591,25.5094862 C54.5817872,25.5094862 58.0070382,26.8115406 58.6132289,32.8866714 C58.6703823,33.459612 58.7360479,35.4929236 58.7360479,36.2391857 L58.7360479,36.2391857 Z M54.4729526,36.2391857 C54.4729526,33.4553249 54.3641179,32.2950512 54.3622939,32.2705535 C54.3434454,30.7161725 53.5363058,29.1464804 51.7800553,29.1464804 C50.0265408,29.1464804 49.2194012,30.7161725 49.1972087,32.2846397 C49.1953846,32.2950512 49.08655,33.4553249 49.08655,36.2391857 C49.08655,39.0236589 49.1953846,39.9628407 49.1972087,39.9717211 C49.2732105,41.4795564 49.9979641,43.2250196 51.7800553,43.2250196 C53.5648825,43.2250196 54.2181944,41.5888775 54.3641179,40.0479703 C54.3863105,39.805749 54.4729526,39.0236589 54.4729526,36.2391857 L54.4729526,36.2391857 Z M89.2930447,26.4841896 C88.4631046,25.8637846 87.1646891,25.4849885 85.8997144,25.506424 C84.5301612,25.5226537 83.2180654,25.9675938 82.3066513,26.6976261 L82.3066513,17.9840898 L78.0247075,17.9840898 L78.0247075,46.4029877 L82.3066513,46.4029877 L82.3066513,31.5714495 C82.3066513,30.5382577 83.1682082,29.4009506 84.7660709,29.3302134 C85.4725841,29.3014286 86.460912,29.6079564 86.957052,30.3588119 C87.489673,31.1577441 87.4568402,32.2142087 87.4568402,33.3744824 L87.4522801,46.4029877 L91.7320958,46.4029877 L91.7320958,33.2072854 C91.7320958,29.3182708 91.2289636,27.9323117 89.2930447,26.4841896 L89.2930447,26.4841896 Z" mask="url(#logo-roche-b)"/>
  </g>
</svg>
