<svg xmlns="http://www.w3.org/2000/svg" width="68.934" height="103" viewBox="0 0 68.934 103">
  <path id="Path_43" data-name="Path 43" d="M-250.167-96.952a1.446,1.446,0,0,1,1.42,1.42,1.388,1.388,0,0,1-.109.655l-6.117,15.729a1.555,1.555,0,0,1-1.42.983,1.415,1.415,0,0,1-1.42-1.092l-3.058-9.065-.218-.874-.328.874-3.6,9.175a1.555,1.555,0,0,1-1.42.983,1.508,1.508,0,0,1-1.42-1.092L-273-94.767a1.554,1.554,0,0,1-.218-.655,1.546,1.546,0,0,1,1.42-1.529h3.495a1.311,1.311,0,0,1,1.311.983h.109v.109l2.076,6.881.219.765.328-.765,1.638-4.26-.437-1.529c0-.219-.109-.437-.109-.655a1.456,1.456,0,0,1,1.311-1.529h3.495a1.556,1.556,0,0,1,1.42.983h0v.109l2.185,6.881.218.765.219-.765,2.731-7.1a1.464,1.464,0,0,1,1.42-.874Zm25.887,0a1.465,1.465,0,0,0-1.42.874l-2.73,7.1-.219.765-.219-.765-2.185-6.881v-.109h0a1.556,1.556,0,0,0-1.42-.983h-3.5a1.456,1.456,0,0,0-1.31,1.529,1.387,1.387,0,0,0,.109.655l.437,1.529-1.638,4.26-.328.765-.219-.765-2.076-6.881-.109-.109h0a1.312,1.312,0,0,0-1.311-.983h-3.5a1.547,1.547,0,0,0-1.42,1.529,1.554,1.554,0,0,0,.219.655l5.134,15.51a1.507,1.507,0,0,0,1.42,1.092,1.555,1.555,0,0,0,1.42-.983l3.6-9.175.328-.874.219.874,3.058,9.065a1.414,1.414,0,0,0,1.42,1.092,1.555,1.555,0,0,0,1.42-.983l6.117-15.729a1.382,1.382,0,0,0,.11-.655,1.446,1.446,0,0,0-1.42-1.42Zm16.82,0h-12.124a1.262,1.262,0,0,0-1.311,1.311h0v16.056h0a1.425,1.425,0,0,0,1.42,1.311h3.386a1.262,1.262,0,0,0,1.311-1.311v-7.536h5.024a1.41,1.41,0,0,0,1.311-1.311,1.43,1.43,0,0,0-1.311-1.42h-5.024v-4.26h7.318a1.446,1.446,0,0,0,1.42-1.419,1.447,1.447,0,0,0-1.42-1.42Zm-18.786-51.336c2.184,2.4,2.4,9.83,7.973,6.881,3.277-1.747,3.277-9.175-1.2-11.906-3.6-2.075-5.57.765-6.881,4.26a.648.648,0,0,0,.11.765Zm-8.629-1.2a.825.825,0,0,0,.219-.437c0-4.042-2.075-7.865-6.226-5.9-6.008,3.168-5.68,9.94-2.185,11.688,4.26,1.856,5.789-3.5,8.192-5.352Zm5.68,13.435c2.294-.219,1.747-2.4,0-2.84a15.625,15.625,0,0,0-5.57-.765c-2.949,0-2.84,2.294-1.311,2.731a4.253,4.253,0,0,1,2.949,1.747c.874,1.747.437-.546,3.933-.874Zm10.813-38.011c-1.747,2.949-1.42,4.588.437,5.461a11.914,11.914,0,0,1,4.587,3.713c2.4,3.277,6.117-.109,7.536-2.949,1.092-2.076.546-5.134-2.185-7.755-2.512-2.4-7.536-3.277-10.376,1.529Zm11.468,21.081c4.151,13.872-3.058,39.1-8.847,42.817-5.68,3.713-13.654,4.806-11.141-5.571,3.823-18.022-9.721-13.653-4.151,4.806.546,2.185,4.7,5.9-2.84,6.881-13.107.983-16.6-9.175-21.627-20.316-.219-.764-.656-.655-.656-.219-.437,6.226,5.789,11.25-3.277,11.25-5.024-.328-8.519-1.42-12.67-14.09-1.748-6.117-.11-6.99-1.2-11.578-2.294-9.612-.983-23.811,12.889-31.13,1.311-.764,1.42-.328,1.092,0C-275.4-159.1-269.827-139-259.56-132.45c.328.219.874.219.655-.437-2.4-7.645-.546-6.99-.764-14.527-.219-7.209,1.529-15.4,11.359-22.064-3.5-4.26-1.638-7.865,1.2-10.158a8.5,8.5,0,0,1,2.912-1.529h3.71a6.41,6.41,0,0,1,3.646,3.713c2.076,4.478.765,5.461-1.529,6.335a12.3,12.3,0,0,0-3.823,2.4c-2.076,1.966-2.84,1.747-4.7.546-9.721,12.233-6.226,27.416,4.806,30.146a3.938,3.938,0,0,1,2.622,2.512c2.621,5.352,4.806.328,8.519,2.84,5.243,2.294,4.369-2.185,7.209-2.185,11.141-.109,16.384-9.5,16.165-18.241,0-.655.437-.765.655.11Zm-22.063,21.954c0-.219-.11-.11-.219-.11a37.421,37.421,0,0,1-7.536-.983c0-.109-.219-.109-.219,0,.219,3.277,6.663,4.369,7.974,1.092Zm-28.29,23.375a3.265,3.265,0,0,0-3.167-3.277,3.286,3.286,0,0,0-3.277,3.277,3.2,3.2,0,0,0,3.277,3.167,3.17,3.17,0,0,0,3.167-3.167Zm-3.167-3.823a3.8,3.8,0,0,1,3.823,3.823,3.87,3.87,0,0,1-3.823,3.822,3.893,3.893,0,0,1-3.932-3.822,3.824,3.824,0,0,1,3.932-3.823Zm1.092,4.369a1.036,1.036,0,0,1-.983.874,1.355,1.355,0,0,1-1.311-1.42,1.272,1.272,0,0,1,1.2-1.42,1.086,1.086,0,0,1,1.092.765h.546a1.482,1.482,0,0,0-1.638-1.31,1.868,1.868,0,0,0-1.857,1.966,1.892,1.892,0,0,0,1.966,1.966,1.619,1.619,0,0,0,1.529-1.42Zm52.647,4.478a3.265,3.265,0,0,0-3.167-3.277,3.286,3.286,0,0,0-3.277,3.277,3.2,3.2,0,0,0,3.277,3.167,3.17,3.17,0,0,0,3.167-3.167Zm-3.167-3.823a3.8,3.8,0,0,1,3.823,3.823,3.871,3.871,0,0,1-3.823,3.823,3.894,3.894,0,0,1-3.932-3.823,3.824,3.824,0,0,1,3.932-3.823Zm-.656,4.042v1.638h-.546v-3.714h1.311c.874,0,1.311.328,1.311,1.092,0,.655-.437.874-.983.983l1.092,1.638h-.655l-.983-1.638Zm0-.437h.656c.437,0,.874,0,.874-.655,0-.437-.437-.437-.874-.437h-.656v1.092Z" transform="translate(274.228 181.165)" fill="#262626" fill-rule="evenodd"/>
</svg>
