<svg width="153" height="153" viewBox="0 0 153 153" fill="none" xmlns="http://www.w3.org/2000/svg">
<path d="M150.837 76.4187C150.837 117.519 117.519 150.837 76.4187 150.837C35.3184 150.837 2 117.519 2 76.4187C2 35.3184 35.3184 2 76.4187 2C117.519 2 150.837 35.3184 150.837 76.4187" stroke="#202430" stroke-width="3.2319"/>
<path d="M110.013 77.2693C110.013 106.627 85.8338 130.426 56.0067 130.426C26.1797 130.426 2 106.627 2 77.2693C2 47.9119 26.1797 24.113 56.0067 24.113C85.8338 24.113 110.013 47.9119 110.013 77.2693" stroke="#202430" stroke-width="3.2319"/>
<path d="M57.2825 79.8207C57.2825 95.0865 44.9071 107.462 29.6413 107.462C14.3754 107.462 2 95.0865 2 79.8207C2 64.5549 14.3754 52.1794 29.6413 52.1794C44.9071 52.1794 57.2825 64.5549 57.2825 79.8207" stroke="#202430" stroke-width="3.2319"/>
<path fill-rule="evenodd" clip-rule="evenodd" d="M27.515 79.3954C27.515 86.4412 21.8033 92.1529 14.7575 92.1529C7.71173 92.1529 2 86.4412 2 79.3954C2 72.3497 7.71173 66.6379 14.7575 66.6379C21.8033 66.6379 27.515 72.3497 27.515 79.3954Z" fill="#202430"/>
</svg>
