<svg width="50" height="50" viewBox="0 0 284 182" fill="none" xmlns="http://www.w3.org/2000/svg">
<path d="M57.06 49.976C22.284 49.976 1.61999 70.388 0.107994 95.84H31.356C31.86 85.256 39.672 75.68 55.044 75.68C69.408 75.68 77.724 82.988 77.724 93.572C77.724 98.864 74.448 102.896 68.148 102.896H46.728C19.008 102.896 0.359993 118.016 0.359993 142.964C0.359993 164.636 17.244 181.016 41.94 181.016C59.328 181.016 73.44 173.204 77.724 161.36V179H112.5V97.352C112.5 68.624 89.064 49.976 57.06 49.976ZM50.76 155.564C40.932 155.564 33.876 149.768 33.876 141.452C33.876 131.624 41.436 125.072 52.02 125.072H77.724V126.836C77.724 142.964 67.896 155.564 50.76 155.564Z" fill="black"/>
<path d="M202.408 181.016C225.088 181.016 243.736 169.424 249.532 152.036V179H283.048V110.96C283.048 95.588 270.952 82.484 254.572 82.484H206.692V110.96H240.712C244.996 110.96 247.768 113.732 247.768 118.016C247.768 134.396 226.096 150.272 204.172 150.272C174.94 150.272 151.756 127.34 151.756 90.8C151.756 54.26 174.94 33.092 204.928 33.092C227.608 33.092 243.232 45.44 246.004 64.34H283.552C281.284 26.54 249.532 0.583984 205.18 0.583984C158.56 0.583984 115.72 30.572 115.72 90.8C115.72 151.028 157.3 181.016 202.408 181.016Z" fill="black"/>
</svg>
