<?xml version="1.0" encoding="utf-8"?>
<!-- Generator: Adobe Illustrator 16.0.0, SVG Export Plug-In . SVG Version: 6.00 Build 0)  -->
<!DOCTYPE svg PUBLIC "-//W3C//DTD SVG 1.1//EN" "http://www.w3.org/Graphics/SVG/1.1/DTD/svg11.dtd">
<svg version="1.1" id="Layer_1" xmlns="http://www.w3.org/2000/svg" xmlns:xlink="http://www.w3.org/1999/xlink" x="0px" y="0px"
	 width="20px" height="20px" viewBox="0 -4 20 20" enable-background="new 0 -4 20 20" xml:space="preserve">
<path fill="#222222" d="M20,10.5v1c0,0.301-0.2,0.5-0.5,0.5h-19C0.2,12,0,11.801,0,11.5v-1C0,10.199,0.2,10,0.5,10h19
	C19.8,10,20,10.199,20,10.5z M19.5,0h-19C0.2,0,0,0.2,0,0.5v1C0,1.8,0.2,2,0.5,2h19C19.8,2,20,1.8,20,1.5v-1C20,0.2,19.8,0,19.5,0z"
	/>
</svg>
