<svg width="102" height="102" viewBox="0 0 102 102" fill="none" xmlns="http://www.w3.org/2000/svg">
<g clip-path="url(#clip0_206_54)">
<path d="M42.1319 19.5123C31.4287 19.5123 21.1639 23.7642 13.5955 31.3325C6.02723 38.9008 1.77539 49.1656 1.77539 59.8688C1.77539 70.5721 6.02723 80.8369 13.5955 88.4052C21.1639 95.9735 31.4287 100.225 42.1319 100.225V100.225C52.8351 100.225 63.1 95.9735 70.6683 88.4052C78.2366 80.8369 82.4884 70.5721 82.4884 59.8688" stroke="#4540DB" stroke-width="4" stroke-miterlimit="10"/>
<path d="M20.8154 68.6954C21.9774 71.4931 23.6784 74.0348 25.8216 76.1758C27.9605 78.3204 30.5021 80.0212 33.3005 81.1805C36.0988 82.3397 39.0986 82.9345 42.1275 82.9307V82.9307C45.1564 82.9345 48.1563 82.3397 50.9546 81.1805C53.7529 80.0212 56.2945 78.3204 58.4335 76.1758C60.5766 74.0348 62.2776 71.4931 63.4396 68.6954" stroke="#4540DB" stroke-width="4" stroke-miterlimit="10"/>
<path d="M30.5973 54.103C33.7813 54.103 36.3625 51.5218 36.3625 48.3377C36.3625 45.1537 33.7813 42.5725 30.5973 42.5725C27.4132 42.5725 24.832 45.1537 24.832 48.3377C24.832 51.5218 27.4132 54.103 30.5973 54.103Z" fill="#4540DB" stroke="#4540DB" stroke-width="3.5"/>
<path d="M53.6607 54.103C56.8448 54.103 59.4259 51.5218 59.4259 48.3377C59.4259 45.1537 56.8448 42.5725 53.6607 42.5725C50.4767 42.5725 47.8955 45.1537 47.8955 48.3377C47.8955 51.5218 50.4767 54.103 53.6607 54.103Z" fill="#4540DB" stroke="#4540DB" stroke-width="3.5"/>
<path d="M82.4844 2.21802V36.8093" stroke="#4540DB" stroke-width="4" stroke-miterlimit="10" stroke-linecap="square"/>
<path d="M65.1895 19.5123H99.7808" stroke="#4540DB" stroke-width="4" stroke-miterlimit="10" stroke-linecap="square"/>
</g>
<defs>
<clipPath id="clip0_206_54">
<rect width="102" height="102" fill="white"/>
</clipPath>
</defs>
</svg>
