<svg width="124" height="102" viewBox="0 0 124 102" fill="none" xmlns="http://www.w3.org/2000/svg">
    <path d="M29.5 94.9075C29.5 74.4163 53.875 78.5167 53.875 70.3213C54.1474 67.411 53.3587 64.5004 51.6542 62.1259C49.7103 60.2828 48.179 58.0487 47.1613 55.5707C46.1436 53.0928 45.6626 50.4274 45.75 47.75C45.4855 43.1585 47.0441 38.6481 50.0871 35.1994C53.13 31.7508 57.4112 29.6427 62 29.3334C66.5888 29.6427 70.87 31.7508 73.9129 35.1994C76.9559 38.6481 78.5145 43.1585 78.25 47.75C78.3475 50.4353 77.863 53.1098 76.8299 55.5902C75.7968 58.0707 74.2394 60.2983 72.2646 62.1205C70.6286 64.5263 69.8729 67.4229 70.125 70.3213C70.125 78.5167 94.5 74.4217 94.5 94.913C94.5 94.913 88.0271 99.7555 62 99.7555C35.9729 99.7555 29.5 94.9075 29.5 94.9075Z" stroke="#4540DB" stroke-width="4" stroke-miterlimit="10"/>
    <path d="M26.7162 72.4879C23.6341 72.3471 20.9149 72.1358 18.5262 71.8704C12.9193 71.7591 7.41096 70.3756 2.41699 67.8242C2.41699 47.3329 26.792 51.4333 26.792 43.2379C27.0644 40.3277 26.2757 37.417 24.5712 35.0425C22.6273 33.1994 21.096 30.9653 20.0783 28.4874C19.0606 26.0095 18.5796 23.344 18.667 20.6667C18.4025 16.0751 19.9611 11.5647 23.0041 8.11604C26.047 4.66739 30.3282 2.55928 34.917 2.25C39.5058 2.55928 43.787 4.66739 46.8299 8.11604C49.8728 11.5647 51.4315 16.0751 51.167 20.6667" stroke="#4540DB" stroke-width="4" stroke-miterlimit="10"/>
    <path d="M97.2815 72.4879C100.364 72.3471 103.083 72.1358 105.472 71.8704C111.078 71.7591 116.587 70.3756 121.581 67.8242C121.581 47.3329 97.2057 51.4333 97.2057 43.2379C96.9332 40.3277 97.722 37.417 99.4265 35.0425C101.37 33.1994 102.902 30.9653 103.919 28.4874C104.937 26.0095 105.418 23.344 105.331 20.6667C105.595 16.0751 104.037 11.5647 100.994 8.11604C97.9507 4.66739 93.6695 2.55928 89.0807 2.25C84.4919 2.55928 80.2107 4.66739 77.1677 8.11604C74.1248 11.5647 72.5662 16.0751 72.8307 20.6667" stroke="#4540DB" stroke-width="4" stroke-miterlimit="10"/>
</svg>
