<svg width="140" height="100" viewBox="0 0 140 100" fill="none" xmlns="http://www.w3.org/2000/svg">
<path d="M97.5404 60.295L69.5148 32.2695L41.4893 60.295" stroke="#4540DB" stroke-width="4" stroke-miterlimit="10"/>
<path d="M69.5127 43.7809V96.6264" stroke="#4540DB" stroke-width="4" stroke-miterlimit="10" stroke-linecap="square"/>
<path d="M89.2894 81.8069H109.146C116.154 81.8069 122.875 79.0231 127.83 74.0679C132.785 69.1126 135.569 62.3919 135.569 55.3841C135.569 48.3764 132.785 41.6556 127.83 36.7004C122.875 31.7452 116.154 28.9614 109.146 28.9614C109.146 25.1679 108.058 21.454 106.01 18.2609C103.962 15.0678 101.04 12.5296 97.5921 10.9478C94.1441 9.36607 90.3145 8.8072 86.5583 9.3376C82.802 9.868 79.277 11.4654 76.4017 13.94C72.0567 8.38192 65.8764 4.55041 58.9659 3.13046C52.0553 1.71051 44.865 2.79471 38.6804 6.18921C32.4958 9.58372 27.7201 15.0672 25.2071 21.6594C22.6941 28.2516 22.6077 35.5227 24.9632 42.1727H23.2722C18.0163 42.1727 12.9758 44.2606 9.25936 47.977C5.54294 51.6935 3.45508 56.734 3.45508 61.9898C3.45508 67.2456 5.54294 72.2862 9.25936 76.0026C12.9758 79.719 18.0163 81.8069 23.2722 81.8069H46.3524" stroke="#4540DB" stroke-width="4" stroke-miterlimit="10"/>
</svg>
