<svg width="102" height="102" viewBox="0 0 102 102" fill="none" xmlns="http://www.w3.org/2000/svg">
<path d="M51 99.75C77.9239 99.75 99.75 77.9239 99.75 51C99.75 24.0761 77.9239 2.25 51 2.25C24.0761 2.25 2.25 24.0761 2.25 51C2.25 77.9239 24.0761 99.75 51 99.75Z" stroke="#4540DB" stroke-width="4" stroke-miterlimit="10"/>
<path d="M50.9997 99.75C61.833 99.75 72.6663 77.9262 72.6663 51C72.6663 24.0737 61.833 2.25 50.9997 2.25C40.1663 2.25 29.333 24.0737 29.333 51C29.333 77.9262 40.1663 99.75 50.9997 99.75Z" stroke="#4540DB" stroke-width="4" stroke-miterlimit="10"/>
<path d="M2.25 51C2.25 61.8334 24.0738 72.6667 51 72.6667C77.9263 72.6667 99.75 61.8334 99.75 51C99.75 40.1667 77.9263 29.3334 51 29.3334C24.0738 29.3334 2.25 40.1667 2.25 51Z" stroke="#4540DB" stroke-width="4" stroke-miterlimit="10"/>
</svg>
