<svg xmlns="http://www.w3.org/2000/svg" width="24" height="20" viewBox="0 0 24 20">
  <path fill="#222" d="M21.54,4.94047619 L21.54,5.5952381 C21.54,12.2619048 16.56,20 7.56,20 C4.74,20 2.16,19.1666667 0,17.7380952 C0.36,17.797619 0.78,17.797619 1.2,17.797619 C3.48,17.797619 5.64,16.9642857 7.32,15.6547619 C5.16,15.5952381 3.36,14.1666667 2.7,12.1428571 C3,12.202381 3.3,12.2619048 3.6,12.2619048 C4.02,12.2619048 4.5,12.202381 4.92,12.0833333 C2.64,11.6071429 0.96,9.58333333 0.96,7.14285714 L0.96,7.02380952 C1.62,7.38095238 2.4,7.61904762 3.18,7.67857143 C1.81911663,6.69447883 1.01596317,5.12305313 1.02,3.45238095 C1.02,2.5 1.26,1.66666667 1.68,0.892857143 C4.08,3.92857143 7.74,5.95238095 11.82,6.19047619 C11.76,5.83333333 11.7,5.41666667 11.7,5.05952381 C11.7,2.26190476 13.92,0 16.62,0 C18.06,0 19.32,0.595238095 20.22,1.60714286 C21.36,1.36904762 22.38,0.952380952 23.34,0.357142857 C22.98,1.54761905 22.2,2.55952381 21.18,3.1547619 C22.2,3.03571429 23.1,2.73809524 24,2.38095238 C23.34,3.39285714 22.5,4.22619048 21.54,4.94047619"/>
</svg>
