<svg id="logo-ymc" xmlns="http://www.w3.org/2000/svg" width="60.9" height="15.2" viewBox="0 0 60.9 15.2">
  <path id="Path_3" data-name="Path 3" d="M36.1.2,31,9.7,25.9.2H21.8L18.9,3.6V15h4.4V4.3h0l5.9,10.6h3.4L38.5,4.3h0V14.9h4.4V.2H36.1" fill="#222" fill-rule="evenodd"/>
  <path id="Path_4" data-name="Path 4" d="M8.2,9.8,0,.2H5.5l5,6,5-6H21L12.8,9.8v5.1H8.2V9.8m42.9,1.5c-2.1,0-2.6-.8-2.6-3V6.8c0-1.8.5-3,2.8-3h9.6V0H50.3c-4.1,0-6.5,1-6.5,5.4V9.8c0,4.3,2.4,5.4,6.5,5.4H60.9V11.4l-9.8-.1" fill="#222" fill-rule="evenodd"/>
</svg>
