<?xml version="1.0" encoding="UTF-8"?>
<svg width="20px" height="12px" viewBox="0 0 20 12" version="1.1" xmlns="http://www.w3.org/2000/svg" xmlns:xlink="http://www.w3.org/1999/xlink">
    <title>41B83FD9-0E98-48AC-AFA3-8A6FCA99E32D</title>
    <g id="--CURRENT-VERSION" stroke="none" stroke-width="1" fill="none" fill-rule="evenodd">
        <g id="---HOME-" transform="translate(-32.000000, -24.000000)" fill="#222222" fill-rule="nonzero">
            <g id="Menu" transform="translate(32.000000, 24.000000)">
                <path d="M20,10.5 L20,11.5 C20,11.8 19.8,12 19.5,12 L0.5,12 C0.2,12 0,11.8 0,11.5 L0,10.5 C0,10.2 0.2,10 0.5,10 L19.5,10 C19.8,10 20,10.2 20,10.5 Z M19.5,0 L0.5,0 C0.2,0 0,0.2 0,0.5 L0,1.5 C0,1.8 0.2,2 0.5,2 L19.5,2 C19.8,2 20,1.8 20,1.5 L20,0.5 C20,0.2 19.8,0 19.5,0 Z" id="Shape"></path>
            </g>
        </g>
    </g>
</svg>