<?xml version="1.0" encoding="utf-8"?>
<!-- Generator: Adobe Illustrator 24.3.0, SVG Export Plug-In . SVG Version: 6.00 Build 0)  -->
<svg version="1.1" id="Layer_1" xmlns="http://www.w3.org/2000/svg" xmlns:xlink="http://www.w3.org/1999/xlink" x="0px" y="0px"
	 viewBox="0 0 157 48" style="enable-background:new 0 0 157 48;" xml:space="preserve">
<style type="text/css">
	.st0{fill-rule:evenodd;clip-rule:evenodd;fill:#1D1D1B;}
	.st1{fill:#1D1D1B;}
</style>
<path class="st0" d="M54.7,6.4H49v1h1.1c0.7,0,0.8,0.1,0.8,0.8v8.5c0,0.6-0.1,0.8-0.8,0.8H49v1h5.6v-1h-0.7c-0.7,0-0.8-0.1-0.8-0.8
	V8.2c0-0.6,0.1-0.8,0.8-0.8h0.8V6.4z M56.8,7.8c0,0.1-0.1,0.3-0.3,0.5l-3.3,3.8l3.1,4.3c0.2,0.2,0.3,0.5,0.4,0.8
	c0,0.2-0.2,0.3-0.6,0.3h-0.6v1H61v-1h-0.8c-0.4,0-0.7-0.2-1.1-0.7l-3.7-5l3.4-3.8c0.2-0.3,0.6-0.5,1-0.5h0.6v-1h-4.7v1h0.6
	C56.7,7.5,56.8,7.6,56.8,7.8z"/>
<path class="st1" d="M61.8,9.6c1,0,2.6-0.1,3.5-0.2v2.1h0c0.4-1.3,1.7-2.2,3.1-2.1c0.5,0,1,0.1,1.4,0.2v2.7h-1.7
	c0-0.9-0.2-1.4-0.9-1.4c-0.8,0-1.7,1.1-1.7,2.7v3c0,0.9,0.1,1.2,1,1.2h1v0.9h-5.8v-0.9h0.6c0.9,0,1-0.3,1-1.2v-4.5
	c0-1.2-0.1-1.4-0.8-1.4h-0.8L61.8,9.6z"/>
<path class="st0" d="M75.1,17.7c-2.2,0-2.2-2.3-2.2-3.5l6.1,0v-0.4c0-3.1-1.2-4.5-4.1-4.5c-3,0-4.3,2-4.3,4.8s1.3,4.8,4.3,4.8
	c3,0,3.9-1.6,3.9-3.2h-1.8C76.9,17,76.4,17.7,75.1,17.7z M74.8,10.3c1.6,0,1.9,1.3,1.9,2.8h-3.9C72.8,11.6,73.3,10.3,74.8,10.3z"/>
<path class="st1" d="M87.8,16.7L87.8,16.7c-0.4,1.2-1.6,2.1-3.4,2.1c-1.8,0-2.9-0.8-2.9-2.6v-4.3c0-1.2-0.1-1.4-0.8-1.4H80v-1
	c0.9,0,2.5-0.1,3.7-0.2v6.4c0,1.1,0.6,1.6,1.6,1.6c1.5,0,2.2-1,2.2-2.9v-2.5c0-1.2-0.1-1.4-0.8-1.4H86v-1c0.9,0,2.5-0.1,3.7-0.2v7.1
	c0,0.9,0.1,1.2,1,1.2h0.5v0.9h-3.4L87.8,16.7z"/>
<path class="st1" d="M92.8,9.6h7v1.4l-4.9,6.4h2.7c0.8,0,1.1-0.2,1.1-1.4v-0.4h1.5v3h-7.7V17l5-6.4H95c-0.6,0-0.7,0.6-0.7,1.4v0.4
	h-1.5L92.8,9.6z"/>
<path class="st1" d="M101.5,5.2c0.9,0,2.5-0.1,3.7-0.2v11.4c0,0.9,0.1,1.2,1,1.2h0.5v0.9h-5.3v-0.9h0.6c0.9,0,1-0.3,1-1.2V7.6
	c0-1.2-0.1-1.4-0.8-1.4h-0.7V5.2z"/>
<path class="st0" d="M111.3,5.4c-0.3-0.3-0.6-0.4-1-0.4l0,0c-0.4,0-0.7,0.1-1,0.4c-0.3,0.3-0.4,0.6-0.3,1c0,0.7,0.6,1.3,1.3,1.3
	c0.7,0,1.3-0.6,1.3-1.3C111.7,6,111.6,5.7,111.3,5.4z M111.5,9.3c-1.2,0.1-2.8,0.2-3.7,0.2l0,1h0.7c0.7,0,0.8,0.2,0.8,1.4v4.5
	c0,0.9-0.1,1.2-1,1.2h-0.6v0.9h5.3v-0.9h-0.5c-0.9,0-1-0.3-1-1.2V9.3z"/>
<path class="st1" d="M114.1,9.6c0.9,0,2.5-0.1,3.4-0.2v2.1h0c0.4-1.3,1.7-2.2,3.1-2.1c1.8,0,3.1,0.8,3.1,2.8v4.4
	c0,0.9,0.1,1.2,1,1.2h0.5v0.9h-4.9v-0.9h0.3c0.9,0,1-0.3,1-1.2v-3.8c0-1.3-0.6-1.9-1.6-1.9c-1.3,0-2.2,1-2.2,2.7v3
	c0,0.9,0.1,1.2,1,1.2h0.2v0.9h-5v-0.9h0.6c0.9,0,1-0.3,1-1.2v-4.5c0-1.2-0.1-1.4-0.8-1.4h-0.7L114.1,9.6z"/>
<path class="st0" d="M135,10.6h-1.8v0c0.5,0.5,0.8,1.2,0.8,1.9c0,1.5-0.8,2.9-3.3,3.3l-0.4,0.1l-0.1,0c-0.6,0.1-1.3,0.2-1.3,0.8
	c0,0.5,0.3,0.7,2.3,0.9c1.7,0.1,3.4,0.4,3.4,2.6c0,1.7-1.7,2.7-4.7,2.7c-2.9,0-4.1-1.2-4.1-2.7s1.5-2.2,2.8-2.3v0
	c-1.2-0.2-1.6-0.6-1.6-1.2c0-0.6,0.5-1.1,1.8-1.2v0c-1.4-0.4-2.4-1.3-2.4-3c0-1.8,1.6-3.2,3.9-3.2c0.7,0,1.4,0.2,2.1,0.4l2.7-0.2
	L135,10.6z M130.1,18.4c-1.6,0-2.2,0.8-2.2,1.8c0,0.9,0.6,1.7,2.1,1.7c1.7,0,2.3-0.9,2.3-1.7C132.3,19.1,131.7,18.4,130.1,18.4z
	 M128.6,12.5c0-1.6,0.5-2.2,1.6-2.2l0,0c0.9,0,1.4,0.5,1.4,2.2c0,1.6-0.5,2.4-1.4,2.4C129.2,14.9,128.6,14.1,128.6,12.5z"/>
<path class="st0" d="M140.3,17.7c-2.2,0-2.2-2.3-2.2-3.5l6.1,0v-0.4c0-3.1-1.2-4.5-4.1-4.5c-3,0-4.3,2-4.3,4.8s1.3,4.8,4.3,4.8
	c3,0,3.9-1.6,3.9-3.2h-1.8C142.2,17,141.7,17.7,140.3,17.7z M140.1,10.3c1.6,0,1.9,1.3,1.9,2.8h-3.9
	C138.1,11.6,138.6,10.3,140.1,10.3z"/>
<path class="st1" d="M145.6,9.6c0.9,0,2.5-0.1,3.4-0.2v2.1h0c0.4-1.3,1.7-2.2,3.1-2.1c1.8,0,3.1,0.8,3.1,2.8v4.4
	c0,0.9,0.1,1.2,1,1.2h0.5v0.9h-4.9v-0.9h0.3c0.9,0,1-0.3,1-1.2v-3.8c0-1.3-0.6-1.9-1.6-1.9c-1.3,0-2.2,1-2.2,2.7v3
	c0,0.9,0.1,1.2,1,1.2h0.3v0.9h-5.1v-0.9h0.6c0.9,0,1-0.3,1-1.2v-4.5c0-1.2-0.1-1.4-0.8-1.4h-0.7L145.6,9.6z"/>
<path class="st1" d="M55,24.4c-22.2,18.5-39.8-8.8-52.9,2.4L0,24.4C18,5,34.8,30.8,52,21.7"/>
<path class="st1" d="M41.9,10.2C32.5,16,23.5-0.8,8,15l2.3,2c10.7-9.3,21.8,7.4,33.7-4.8L41.9,10.2z"/>
<path class="st1" d="M32.1,0c-5,3.1-8.4-2.2-16.1,6.2L18,8c5.4-4.1,9.7,0.5,16-6L32.1,0z"/>
<path class="st1" d="M12,38.5c9.1-5.2,20.1,9.5,35-5.5L44.6,31c-12.5,9-22.7-6.3-34.6,5.3L12,38.5z"/>
<path class="st1" d="M22.9,48c5-3.5,8.4,2.4,16.1-7l-2.1-2c-4.9,4.4-9.7-0.4-15.9,6.8L22.9,48z"/>
</svg>
