<svg width="156" height="15" viewBox="0 0 156 15" fill="none" xmlns="http://www.w3.org/2000/svg">
<path fill-rule="evenodd" clip-rule="evenodd" d="M61.9974 0.656566L61.8994 0.6236C61.2635 0.409135 60.0504 0 58.4748 0C56.0594 0 54.6503 0.808081 53.8452 1.41414C52.8387 2.17172 50.9265 4.14141 50.9265 7.52525C50.9265 8.53535 51.1277 11.3131 53.4426 13.2828C55.3548 14.9495 57.6697 15 58.5252 15C59.8335 15 60.7394 14.7475 61.9471 14.3939L62.1484 9.0404C61.4942 9.54545 60.9406 9.9495 60.1355 10.1515C59.8335 10.2525 59.4813 10.2525 59.1794 10.2525C57.569 10.2525 56.7639 9.29293 56.5123 8.68687C56.311 8.18182 56.2606 7.67677 56.2606 7.52525C56.2606 5.90909 57.4684 4.74747 59.0284 4.74747C60.6387 4.74747 61.6452 5.70707 62.0477 6.11111V0.656566H61.9974ZM90.8323 0.656566L90.7369 0.624475C90.1015 0.41025 88.8848 0 87.2594 0C84.8439 0 83.4348 0.808081 82.6297 1.41414C81.6232 2.17172 79.711 4.14141 79.711 7.52525C79.711 8.53535 79.9123 11.3131 82.2271 13.2828C84.1394 14.9495 86.4542 15 87.3097 15C88.6181 15 89.5239 14.7475 90.7316 14.3939L90.9329 9.0404C90.2787 9.54545 89.7252 9.9495 88.92 10.1515C88.6181 10.2525 88.2658 10.2525 87.9639 10.2525C86.3535 10.2525 85.5484 9.29293 85.2968 8.68687C85.0955 8.18182 85.0452 7.67677 85.0452 7.52525C85.0452 5.90909 86.2529 4.74747 87.8129 4.74747C89.4232 4.74747 90.4297 5.70707 90.8323 6.11111V0.656566ZM121.227 14.697V0.40404V0.353535H127.266C128.524 0.353535 129.128 0.40404 129.732 0.505051L129.743 0.507576C130.403 0.660503 131.951 1.01901 132.952 2.62626C133.707 3.88889 133.757 5.15152 133.757 5.65657C133.757 6.26263 133.707 8.28283 132.046 9.49495C130.889 10.3535 129.53 10.404 128.172 10.404H126.461V14.697H121.227ZM134.764 14.697V0.40404H144.325V4.39394H139.595V5.55556H143.973V9.39394H139.595V10.7071H144.476V14.697H134.764ZM145.08 0.40404H155.95V4.69697H153.132V14.697H147.898V4.69697H145.08V0.40404ZM126.41 4.29293H126.914C127.467 4.29293 128.121 4.29293 128.524 4.79798C128.675 5 128.725 5.20202 128.725 5.50505C128.725 5.80808 128.675 6.06061 128.423 6.31313C128.021 6.76768 127.467 6.81818 126.914 6.81818H126.41V4.29293ZM112.27 4.29293H112.974L112.99 4.29279L113.017 4.29227C113.324 4.28599 114.585 4.26017 114.585 5.45455C114.585 5.80808 114.484 6.06061 114.383 6.16162C114.081 6.66667 113.528 6.66667 112.974 6.66667H112.27V4.29293ZM107.388 14.697V0.40404H113.326C113.729 0.40404 114.182 0.40404 114.585 0.454545C116.245 0.555556 117.755 1.0101 118.761 2.37374C119.114 2.87879 119.667 3.73737 119.667 5.20202C119.667 7.07071 118.812 7.9798 118.157 8.43434C117.755 8.68687 117.453 8.83838 117 8.9899L120.422 14.697H114.886L112.27 9.44444V14.697H107.388ZM99.0348 5.35354L100.092 9.44444H98.0284L99.0348 5.35354ZM91.3355 14.697L95.9148 0.40404H102.155L106.734 14.697H101.4L100.947 12.8788H97.0723L96.6194 14.697H91.3355ZM62.9032 0.40404H73.7729V4.69697H70.9548V14.697H65.7213V4.69697H62.9032V0.40404ZM40.2077 14.697V0.40404H49.769V4.39394H45.0387V5.55556H49.4168V9.39394H45.0387V10.7071H49.92V14.697H40.2077ZM38.3961 0.40404H33.1626V8.73737C33.1626 9.24242 33.1626 10 32.7097 10.3535C32.5084 10.5051 32.3071 10.5051 32.2065 10.5051C31.5779 10.5051 31.1816 9.99211 30.839 9.54872L30.7974 9.49495L29.0865 13.4343L29.1483 13.4788C29.8719 13.9989 31.2645 15 33.4645 15C35.5781 15 36.7355 14.0404 37.289 13.3333C38.2955 12.0707 38.3961 10.6061 38.3961 9.09091V0.40404ZM22.4439 8.83838H21.5884V11.1616H22.4439C22.7458 11.1616 23.249 11.1616 23.551 11.0606C23.7523 10.9596 24.1548 10.6566 24.1548 10.0505C24.1548 9.74747 24.1045 9.54545 23.9535 9.34343C23.6013 8.83838 22.9471 8.83838 22.4439 8.83838ZM21.6387 3.78788H22.1419C22.1514 3.78788 22.1672 3.78698 22.1884 3.78577C22.3911 3.77421 23.0858 3.73457 23.4503 4.19192C23.6516 4.39394 23.6516 4.69697 23.6516 4.79798C23.6516 5.15152 23.551 5.35354 23.4503 5.45455C23.1484 5.80808 22.6452 5.85859 22.1923 5.85859H21.6387V3.78788ZM16.7071 14.697V0.454545H23.4H24.2555C24.809 0.454545 26.7213 0.555556 27.8284 2.17172C28.231 2.77778 28.4323 3.53535 28.4323 4.29293C28.4323 5.20202 28.1303 6.11111 27.4761 6.71717C27.2748 6.91919 27.0735 7.07071 26.671 7.32323C27.2748 7.62626 27.6774 7.82828 28.1806 8.33333C29.0865 9.24242 29.0865 10.202 29.0865 10.6566C29.0865 11.1111 29.0361 12.0202 28.3316 12.9293C28.0297 13.3333 27.6774 13.6364 27.2748 13.8889C26.0168 14.6465 24.809 14.697 23.4 14.697H16.7071ZM7.69935 4.79798C8.80645 4.79798 9.66194 5.40404 10.0645 6.41414C10.1652 6.61616 10.2658 6.9697 10.2658 7.52525C10.2658 9.09091 9.30968 9.84848 8.75613 10.0505C8.55484 10.1515 8.20258 10.2525 7.64903 10.2525C6.08903 10.2525 5.1329 8.9899 5.1329 7.52525C5.1329 6.0101 6.03871 5.25253 6.54194 5C7.09548 4.79798 7.49806 4.79798 7.69935 4.79798ZM3.32129 1.21212C4.07613 0.757576 5.48516 0.050505 7.64903 0.050505C8.45419 0 10.3665 0.10101 12.329 1.31313C12.9832 1.76768 14.6439 3.13131 15.2477 5.45455C15.2563 5.51494 15.2679 5.58712 15.2811 5.66983C15.3452 6.07132 15.449 6.72095 15.449 7.47475C15.449 11.8687 12.2787 15 7.90065 15C7.3471 15 6.18968 15 4.83097 14.4949C1.76129 13.4343 0 10.8081 0 7.57576C0 7.27273 0 6.51515 0.251613 5.65657C0.855484 3.08081 2.51613 1.71717 3.32129 1.21212Z" fill="#1D1D1B"/>
</svg>
