<svg xmlns="http://www.w3.org/2000/svg" xmlns:xlink="http://www.w3.org/1999/xlink" width="123" height="25" viewBox="0 0 123 25">
  <defs>
    <polygon id="logo-trivadis-a" points=".186 .119 16.444 .119 16.444 25 .186 25"/>
    <polygon id="logo-trivadis-c" points="0 25 123 25 123 .119 0 .119"/>
  </defs>
  <g fill="none" fill-rule="evenodd">
    <polygon fill="#000" points="46.104 24 50.929 24 57 8 52.718 8 48.756 19.651 48.692 19.651 44.602 8 40 8"/>
    <path fill="#000" d="M61.1964053,12.4283125 C62.6422703,11.3183125 64.4731253,10.6001875 66.3045953,10.6001875 C68.8427003,10.6001875 70.0311877,11.5145625 70.0311877,14.2245625 L67.6542127,14.2245625 C65.8547228,14.2245625 63.7345102,14.3883125 62.0961503,15.2039375 C60.4568678,16.0208125 59.2683803,17.489875 59.2683803,20.00425 C59.2683803,23.2039375 62.1281303,24.999875 65.0512253,24.999875 C67.0118452,24.999875 69.1643452,23.95425 70.1594152,22.093625 L70.2242977,22.093625 C70.2565852,22.616125 70.2565852,23.726125 70.4167927,24.608 L74.2082677,24.608 C74.1123277,23.3014375 74.0480602,22.1264375 74.0154652,20.8526875 C73.9831777,19.6114375 73.9518127,18.338625 73.9518127,16.6408125 L73.9518127,14.4851875 C73.9518127,9.5220625 71.8629653,7.4008125 66.8187353,7.4008125 C64.9878803,7.4008125 62.7379028,7.889875 61.0672553,8.673625 L61.1964053,12.4283125 Z M63.3808853,19.7426875 C63.3808853,17.1633125 66.2403278,16.8364375 68.1683527,16.8364375 L70.0311878,16.8364375 C70.0311878,18.143 69.8386927,19.3508125 69.1323652,20.2976875 C68.4570952,21.2120625 67.4297378,21.8005 66.1121002,21.8005 C64.5702953,21.8005 63.3808853,21.1783125 63.3808853,19.7426875 L63.3808853,19.7426875 Z"/>
    <g transform="translate(78.72)">
      <mask id="logo-trivadis-b" fill="#fff">
        <use xlink:href="#logo-trivadis-a"/>
      </mask>
      <path fill="#000" d="M4.68516225,16.151 C4.68516225,13.8975625 5.45667975,10.796 8.25123975,10.796 C11.0147422,10.796 12.1069823,13.79975 12.1069823,16.151 C12.1069823,18.534125 11.1749498,21.6038125 8.31458475,21.6038125 C5.48835225,21.6038125 4.68516225,18.46975 4.68516225,16.151 L4.68516225,16.151 Z M12.2671897,24.6081875 L16.4436548,24.6081875 L16.4436548,0.1188125 L12.1380398,0.1188125 L12.1380398,9.751 L12.0746948,9.751 C10.7893448,8.1513125 9.27859725,7.4006875 7.12671225,7.4006875 C2.04988725,7.4006875 0.18612975,11.51475 0.18612975,16.151 C0.18612975,20.75475 2.04988725,24.99975 7.12671225,24.99975 C9.15036975,24.99975 10.9178798,24.346625 12.2032298,22.714125 L12.2671897,22.714125 L12.2671897,24.6081875 Z" mask="url(#logo-trivadis-b)"/>
    </g>
    <path fill="#000" d="M122.196718,8.0208125 C120.8471,7.72675 119.530385,7.399875 117.505498,7.399875 C114.13253,7.399875 111.01571,8.9995625 111.01571,12.6245625 C111.01571,18.6976875 118.502105,16.4451875 118.502105,19.7426875 C118.502105,21.374875 116.76719,21.8005 115.674643,21.8005 C114.196798,21.8005 112.78322,21.374875 111.434218,20.6895625 L111.175918,24.281125 C112.751548,24.7058125 114.422195,24.999875 116.060555,24.999875 C119.562673,24.999875 123.000215,23.4326875 123.000215,19.51425 C123.000215,13.441125 115.514435,15.138625 115.514435,12.4614375 C115.514435,11.024875 116.896033,10.6001875 118.052233,10.6001875 C119.626018,10.6001875 120.590338,10.8608125 121.90736,11.3189375 L122.197025,8.0208125 L122.196718,8.0208125 Z"/>
    <mask id="logo-trivadis-d" fill="#fff">
      <use xlink:href="#logo-trivadis-c"/>
    </mask>
    <polygon fill="#000" points="101.469 24.608 105.774 24.608 105.774 7.792 101.469 7.792" mask="url(#logo-trivadis-d)"/>
    <polygon fill="#000" points="101.467 4.723 105.761 4.723 105.761 .36 101.467 .36" mask="url(#logo-trivadis-d)"/>
    <polygon fill="#000" points="30.726 4.723 35.02 4.723 35.02 .359 30.726 .359" mask="url(#logo-trivadis-d)"/>
    <polygon fill="#000" points="30.726 24.608 35.031 24.608 35.031 7.792 30.726 7.792" mask="url(#logo-trivadis-d)"/>
    <path fill="#000" d="M16.994049,24.6080625 L21.2028015,24.6080625 L21.2028015,18.437125 C21.0619665,10.2918125 25.326684,12.0536875 25.326684,12.0536875 L25.326684,7.434 C25.326684,7.387125 22.087479,7.7855625 21.2495415,10.4174375 L21.2464665,7.79025 L16.994049,7.7918125 L16.994049,24.6080625 Z" mask="url(#logo-trivadis-d)"/>
    <polygon fill="#000" points="16.96 4.723 21.254 4.723 21.254 .359 16.96 .359" mask="url(#logo-trivadis-d)"/>
    <path fill="#000" d="M3.180411,19.5464063 C3.180411,22.8773438 5.0441685,24.9995313 8.417136,24.9995313 C9.702486,24.9995313 10.6984785,24.8682813 11.5982235,24.6073437 L11.469996,21.1464063 C11.0201235,21.4407813 10.2808935,21.6042188 9.509991,21.6042188 C7.871631,21.6042188 7.485411,20.2654688 7.485411,18.8285938 L7.485411,10.9917188 L11.308866,10.9917188 L11.308866,7.79234375 L-6.15e-05,7.79234375 L-6.15e-05,10.9917188 L3.180411,10.9917188 L3.180411,19.5467188 L3.180411,19.5464063 Z" mask="url(#logo-trivadis-d)"/>
    <polygon fill="#000" points="3.159 4.723 7.453 4.723 7.453 .359 3.159 .359" mask="url(#logo-trivadis-d)"/>
  </g>
</svg>
